<svg  viewBox="0 0 448 448"  >
<path d="M48 0C21.5 0 0 21.5 0 48V400C0 426.5 21.5 448 48 448H400C426.5 448 448 426.5 448 400V48C448 21.5 426.5 0 400 0H48ZM146.88 133.234C166.516 133.234 183.962 140.023 196.809 150.205C208.689 159.657 214.253 169.112 219.107 177.598L185.184 194.547C182.757 188.982 179.837 183.16 172.338 176.865C164.09 170.313 155.86 168.381 148.814 168.381C121.188 168.381 106.644 194.074 106.644 222.668C106.644 260.241 125.805 278.888 148.814 278.888C171.114 278.888 180.092 263.378 185.894 253.453L219.6 270.66C213.285 280.586 207.226 290.295 193.65 299.729C186.388 304.819 169.673 314.766 145.914 314.766C100.586 314.766 64 281.81 64 223.87C64 173.234 98.415 133.234 146.88 133.234ZM222.363 138.562H267.928L303.31 260.24L338.435 138.562H384L324.621 309.674H281.01L222.363 138.563V138.562Z" />
</svg>
