<svg width="32" height="32" viewBox="0 0 32 32" fill="none" xmlns="http://www.w3.org/2000/svg">
<path d="M16.54 12.663H19.4V15.587H20.846C21.5222 15.5839 22.1936 15.4714 22.834 15.254C23.1702 15.1427 23.494 14.9965 23.8 14.818C23.4086 14.2762 23.1765 13.6357 23.13 12.969C23.0096 11.996 23.2595 11.0133 23.83 10.216L24.13 9.86799L24.488 10.156C25.4373 10.852 26.0805 11.8884 26.283 13.048C27.3867 12.709 28.5797 12.82 29.602 13.357L29.995 13.583L29.788 13.983C29.3692 14.6879 28.7506 15.2527 28.0106 15.6057C27.2705 15.9588 26.4423 16.0841 25.631 15.966C23.151 22.134 17.76 25.054 11.222 25.054C7.84396 25.054 4.74595 23.791 2.98095 20.795L2.95195 20.746L2.69995 20.227C2.11871 18.9053 1.8916 17.4551 2.04095 16.019L2.08095 15.586H4.52595V12.663H7.38695V9.79999H13.108V6.94199H16.54V12.663Z" fill="#0096E6"/>
<path d="M12.006 24.567C10.6068 23.9708 9.48499 22.8672 8.86595 21.478C8.12633 21.6759 7.367 21.7909 6.60195 21.821C6.26862 21.8397 5.92029 21.849 5.55695 21.849C5.13562 21.849 4.69195 21.8367 4.22595 21.812C5.12572 22.7488 6.21658 23.481 7.42442 23.9588C8.63227 24.4366 9.92881 24.6488 11.226 24.581C11.4873 24.581 11.7473 24.5763 12.006 24.567V24.567ZM7.07995 13.346H7.27995V15.413H7.07995V13.346ZM6.70395 13.346H6.90395V15.413H6.69995V13.346H6.70395ZM6.32795 13.346H6.52795V15.413H6.32795V13.346ZM5.95195 13.346H6.15195V15.413H5.95195V13.346ZM5.57595 13.346H5.77595V15.413H5.57595V13.346ZM5.20795 13.346H5.40795V15.413H5.20795V13.346ZM4.99995 13.14H7.48195V15.619H4.99995V13.14ZM7.85895 10.279H10.339V12.758H7.86295L7.85895 10.279ZM9.93595 10.486H10.136V12.552H9.93595V10.486ZM9.55995 10.486H9.75995V12.552H9.55995V10.486ZM9.18395 10.486H9.38395V12.552H9.18395V10.486ZM8.80795 10.486H9.00795V12.552H8.80795V10.486ZM8.43195 10.486H8.63195V12.552H8.43195V10.486ZM8.06395 10.486H8.26395V12.552H8.06395V10.486ZM7.85695 13.139H10.337V15.619H7.86295V13.14L7.85695 13.139ZM9.93395 13.346H10.134V15.413H9.93395V13.346ZM9.55795 13.346H9.75795V15.413H9.55795V13.346ZM9.18195 13.346H9.38195V15.413H9.18195V13.346ZM8.80595 13.346H9.00595V15.413H8.80595V13.346ZM8.42995 13.346H8.62995V15.413H8.42995V13.346ZM8.06195 13.346H8.26195V15.413H8.06195V13.346ZM10.716 13.139H13.2V15.619H10.72V13.14L10.716 13.139ZM12.792 13.346H13V15.413H12.8L12.792 13.346ZM12.416 13.346H12.616V15.413H12.416V13.346ZM12.04 13.346H12.24V15.413H12.04V13.346ZM11.664 13.346H11.864V15.413H11.664V13.346ZM11.288 13.346H11.488V15.413H11.288V13.346ZM10.92 13.346H11.12V15.413H10.92V13.346ZM10.714 10.279H13.2V12.758H10.72V10.279H10.714ZM12.79 10.486H13V12.552H12.8L12.79 10.486ZM12.414 10.486H12.614V12.552H12.414V10.486ZM12.038 10.486H12.238V12.552H12.038V10.486ZM11.662 10.486H11.862V12.552H11.662V10.486ZM11.286 10.486H11.486V12.552H11.286V10.486ZM10.918 10.486H11.118V12.552H10.918V10.486ZM13.572 13.139H16.051V15.619H13.571V13.14L13.572 13.139ZM15.648 13.346H15.848V15.413H15.648V13.346ZM15.272 13.346H15.472V15.413H15.272V13.346ZM14.896 13.346H15.096V15.413H14.896V13.346ZM14.52 13.346H14.72V15.413H14.52V13.346ZM14.144 13.346H14.344V15.413H14.144V13.346ZM13.776 13.346H13.968V15.413H13.768V13.346H13.776ZM13.57 10.279H16.049V12.758H13.569V10.279H13.57ZM15.646 10.486H15.846V12.552H15.646V10.486ZM15.27 10.486H15.47V12.552H15.27V10.486ZM14.894 10.486H15.094V12.552H14.894V10.486ZM14.518 10.486H14.718V12.552H14.518V10.486ZM14.142 10.486H14.342V12.552H14.142V10.486ZM13.774 10.486H13.966V12.552H13.766V10.486H13.774ZM13.568 7.41901H16.047V9.90001H13.567V7.41901H13.568ZM15.644 7.62501H15.844V9.69101H15.644V7.62501ZM15.268 7.62501H15.468V9.69101H15.268V7.62501ZM14.892 7.62501H15.092V9.69101H14.892V7.62501ZM14.516 7.62501H14.716V9.69101H14.516V7.62501ZM14.14 7.62501H14.34V9.69101H14.14V7.62501ZM13.772 7.62501H13.964V9.69101H13.764V7.62501H13.772ZM16.426 13.139H18.905V15.619H16.425V13.14L16.426 13.139ZM18.502 13.346H18.697V15.413H18.497V13.346H18.502ZM18.126 13.346H18.332V15.413H18.126V13.346ZM17.75 13.346H17.95V15.413H17.75V13.346ZM17.374 13.346H17.574V15.413H17.374V13.346ZM16.998 13.346H17.198V15.413H16.993V13.346H16.998ZM16.63 13.346H16.83V15.413H16.636V13.346H16.63ZM10.188 19.638C10.3232 19.638 10.4555 19.6781 10.568 19.7533C10.6804 19.8284 10.7681 19.9353 10.8199 20.0602C10.8717 20.1852 10.8852 20.3228 10.8588 20.4554C10.8324 20.5881 10.7673 20.71 10.6716 20.8057C10.576 20.9013 10.4541 20.9665 10.3214 20.9929C10.1887 21.0193 10.0512 21.0057 9.9262 20.9539C9.80121 20.9022 9.69439 20.8145 9.61923 20.702C9.54407 20.5895 9.50395 20.4573 9.50395 20.322C9.50395 20.1406 9.57602 19.9666 9.70429 19.8383C9.83257 19.7101 10.0065 19.638 10.188 19.638V19.638ZM10.188 19.832C10.2485 19.832 10.3085 19.8431 10.365 19.865C10.3381 19.8804 10.3151 19.9017 10.2979 19.9274C10.2807 19.9532 10.2697 19.9825 10.2658 20.0132C10.2618 20.0439 10.265 20.0751 10.2752 20.1043C10.2854 20.1335 10.3022 20.16 10.3243 20.1817C10.3464 20.2033 10.3732 20.2195 10.4027 20.229C10.4321 20.2385 10.4634 20.2411 10.494 20.2364C10.5246 20.2318 10.5537 20.2202 10.579 20.2024C10.6043 20.1846 10.6252 20.1612 10.64 20.134C10.6807 20.231 10.6892 20.3385 10.6642 20.4406C10.6392 20.5428 10.5819 20.6342 10.501 20.7013C10.42 20.7684 10.3195 20.8077 10.2145 20.8133C10.1095 20.8189 10.0054 20.7906 9.91774 20.7325C9.83004 20.6745 9.76336 20.5897 9.72756 20.4908C9.69175 20.3919 9.68872 20.2841 9.7189 20.1834C9.74909 20.0826 9.8109 19.9942 9.89519 19.9313C9.97948 19.8684 10.0818 19.8343 10.187 19.834L10.188 19.832Z" fill="white"/>
</svg>
