<svg width="50" height="50" viewBox="0 0 100 100" fill="none" className='h-15 w-15 text-grey hover:text-[#F7AB0A]' xmlns="http://www.w3.org/2000/svg">
<path d="M88.8889 83.194V82.4385C95.4111 79.7163 100 73.2774 100 65.7719V18.0555C100 13.2669 98.0977 8.67438 94.7116 5.28832C91.3256 1.90227 86.7331 0 81.9444 0H34.7222C30.9045 6.66308e-05 27.1851 1.20985 24.0978 3.45565C21.0106 5.70145 18.7144 8.86775 17.5389 12.4999H16.4222C11.3556 12.4999 7.04444 14.2833 4.07778 17.7999C1.2 21.2054 0 25.7443 0 30.5554V79.1663C0 85.0551 2.12778 90.3551 6.16667 94.1662C10.2 97.9606 15.7944 99.9717 22.2222 99.9717H44L66.6444 99.9995H66.6556C72.0778 100.027 77.45 98.8884 81.6167 96.2217C85.95 93.444 88.8889 89.0273 88.8889 83.194ZM16.4222 20.8332H16.6667V65.7663C16.6667 70.5549 18.5689 75.1474 21.955 78.5335C25.3411 81.9195 29.9336 83.8218 34.7222 83.8218H80.5333C80.3556 86.144 79.1889 87.8773 77.1222 89.1996C74.7167 90.744 71.0667 91.6884 66.6889 91.6662H66.6667L43.9889 91.6384H22.2222C17.5389 91.6384 14.1111 90.194 11.8889 88.0996C9.67778 86.0218 8.33333 82.9996 8.33333 79.1663V30.5554C8.33333 27.0276 9.22222 24.6277 10.4444 23.1721C11.5833 21.8277 13.4 20.8332 16.4222 20.8332ZM50.1222 19.4443H76.3889C77.494 19.4443 78.5538 19.8833 79.3352 20.6647C80.1166 21.4461 80.5555 22.5059 80.5555 23.611V49.8831C80.5555 50.9881 80.1166 52.0479 79.3352 52.8293C78.5538 53.6107 77.494 54.0497 76.3889 54.0497C75.2838 54.0497 74.224 53.6107 73.4426 52.8293C72.6612 52.0479 72.2222 50.9881 72.2222 49.8831V33.6665L43.2222 62.6664C42.8377 63.0641 42.3778 63.3813 41.8693 63.5995C41.3608 63.8176 40.814 63.9323 40.2608 63.9368C39.7076 63.9414 39.1589 63.8357 38.647 63.6259C38.135 63.4162 37.6699 63.1066 37.2789 62.7152C36.8879 62.3238 36.5787 61.8584 36.3694 61.3463C36.1602 60.8341 36.055 60.2854 36.0601 59.7321C36.0651 59.1789 36.1803 58.6322 36.3989 58.124C36.6176 57.6157 36.9352 57.1561 37.3333 56.7719L66.3333 27.7776H50.1222C49.0172 27.7776 47.9573 27.3387 47.1759 26.5573C46.3945 25.7759 45.9556 24.7161 45.9556 23.611C45.9556 22.5059 46.3945 21.4461 47.1759 20.6647C47.9573 19.8833 49.0172 19.4443 50.1222 19.4443Z" fill="grey"/>
</svg>
