<svg width="100" height="100" viewBox="0 0 100 100" fill="none" xmlns="http://www.w3.org/2000/svg">
<path fill-rule="evenodd" clip-rule="evenodd" d="M7.69231 0C5.65218 0 3.69561 0.810437 2.25302 2.25302C0.810437 3.69561 0 5.65218 0 7.69231V92.3077C0 94.3478 0.810437 96.3044 2.25302 97.747C3.69561 99.1896 5.65218 100 7.69231 100H92.3077C94.3478 100 96.3044 99.1896 97.747 97.747C99.1896 96.3044 100 94.3478 100 92.3077V7.69231C100 5.65218 99.1896 3.69561 97.747 2.25302C96.3044 0.810437 94.3478 0 92.3077 0H7.69231ZM15.7692 38.4615H30.3846V84.6154H15.7692V38.4615ZM31.3462 23.1154C31.3462 25.3085 30.4749 27.4118 28.9242 28.9626C27.3734 30.5134 25.2701 31.3846 23.0769 31.3846C20.8838 31.3846 18.7805 30.5134 17.2297 28.9626C15.6789 27.4118 14.8077 25.3085 14.8077 23.1154C14.8077 20.9222 15.6789 18.8189 17.2297 17.2682C18.7805 15.7174 20.8838 14.8462 23.0769 14.8462C25.2701 14.8462 27.3734 15.7174 28.9242 17.2682C30.4749 18.8189 31.3462 20.9222 31.3462 23.1154ZM84.6154 56.5923C84.6154 42.7077 75.6385 37.3077 66.7231 37.3077C63.8093 37.1661 60.9083 37.7781 58.3 39.0846C56.3231 40.0846 54.2538 42.3462 52.6538 46.3H52.2462V38.4615H38.4615V84.6538H53.1231V60.0769C52.9154 57.5615 53.7154 54.3077 55.3615 52.3769C57.0154 50.4385 59.3615 49.9769 61.1538 49.7462H61.7154C66.3769 49.7462 69.8385 52.6308 69.8385 59.9V84.6461H84.5L84.6154 56.5923Z" fill="black"/>
</svg>
