<svg width="100" height="100" viewBox="0 0 100 100" fill="none" xmlns="http://www.w3.org/2000/svg">
<path d="M50.0001 91.6667C54.6025 91.6667 58.3334 87.9357 58.3334 83.3333C58.3334 78.731 54.6025 75 50.0001 75C45.3977 75 41.6667 78.731 41.6667 83.3333C41.6667 87.9357 45.3977 91.6667 50.0001 91.6667Z" fill="#808080"/>
<path d="M50.0001 25C54.6025 25 58.3334 21.2691 58.3334 16.6667C58.3334 12.0643 54.6025 8.33337 50.0001 8.33337C45.3977 8.33337 41.6667 12.0643 41.6667 16.6667C41.6667 21.2691 45.3977 25 50.0001 25Z" fill="#808080"/>
<path d="M26.4293 81.9042C31.0317 81.9042 34.7626 78.1733 34.7626 73.5709C34.7626 68.9685 31.0317 65.2375 26.4293 65.2375C21.8269 65.2375 18.0959 68.9685 18.0959 73.5709C18.0959 78.1733 21.8269 81.9042 26.4293 81.9042Z" fill="#F7AB0A"/>
<path d="M73.5709 34.7625C78.1733 34.7625 81.9042 31.0315 81.9042 26.4292C81.9042 21.8268 78.1733 18.0958 73.5709 18.0958C68.9685 18.0958 65.2375 21.8268 65.2375 26.4292C65.2375 31.0315 68.9685 34.7625 73.5709 34.7625Z" fill="#F7AB0A"/>
<path d="M16.6666 58.3375C21.2713 58.3375 25.0041 54.6047 25.0041 50C25.0041 45.3953 21.2713 41.6625 16.6666 41.6625C12.0619 41.6625 8.3291 45.3953 8.3291 50C8.3291 54.6047 12.0619 58.3375 16.6666 58.3375Z" fill="#808080"/>
<path d="M83.3333 58.3333C87.9357 58.3333 91.6667 54.6023 91.6667 50C91.6667 45.3976 87.9357 41.6666 83.3333 41.6666C78.731 41.6666 75 45.3976 75 50C75 54.6023 78.731 58.3333 83.3333 58.3333Z" fill="#808080"/>
<path d="M26.4293 34.7666C31.0317 34.7666 34.7626 31.0357 34.7626 26.4333C34.7626 21.8309 31.0317 18.1 26.4293 18.1C21.8269 18.1 18.0959 21.8309 18.0959 26.4333C18.0959 31.0357 21.8269 34.7666 26.4293 34.7666Z" fill="#F7AB0A"/>
<path d="M73.5709 81.9084C78.1733 81.9084 81.9042 78.1774 81.9042 73.575C81.9042 68.9727 78.1733 65.2417 73.5709 65.2417C68.9685 65.2417 65.2375 68.9727 65.2375 73.575C65.2375 78.1774 68.9685 81.9084 73.5709 81.9084Z" fill="#F7AB0A"/>
</svg>
