<svg width="15" height="15" viewBox="0 0 15 15" fill="none" xmlns="http://www.w3.org/2000/svg">
<path d="M3.25802 3.11701C3.67802 3.45801 3.83502 3.43201 4.62402 3.37901L12.057 2.93301C12.215 2.93301 12.084 2.77601 12.031 2.75001L10.796 1.85701C10.56 1.67301 10.245 1.46301 9.64102 1.51601L2.44302 2.04101C2.18102 2.06701 2.12802 2.19801 2.23302 2.30301L3.25802 3.11701V3.11701ZM3.70402 4.84901V12.67C3.70402 13.09 3.91402 13.248 4.38702 13.222L12.557 12.749C13.029 12.723 13.082 12.434 13.082 12.093V4.32401C13.082 3.98401 12.951 3.79901 12.662 3.82501L4.12402 4.32401C3.80902 4.35001 3.70402 4.50801 3.70402 4.84901V4.84901ZM11.769 5.26901C11.821 5.50501 11.769 5.74101 11.532 5.76801L11.138 5.84601V11.62C10.797 11.804 10.481 11.91 10.218 11.91C9.79803 11.91 9.69303 11.778 9.37803 11.384L6.80302 7.34201V11.253L7.61802 11.437C7.61802 11.437 7.61802 11.909 6.96102 11.909L5.14902 12.014C5.09602 11.909 5.14902 11.647 5.33302 11.594L5.80502 11.464V6.29201L5.15002 6.24001C5.09702 6.00401 5.22802 5.66301 5.59602 5.63601L7.54002 5.50601L10.22 9.60001V5.97801L9.53702 5.89901C9.48402 5.61001 9.69402 5.40001 9.95702 5.37401L11.77 5.26901H11.769ZM1.83902 1.33201L9.32603 0.781015C10.245 0.701015 10.481 0.755015 11.059 1.17501L13.449 2.85501C13.844 3.14301 13.975 3.22201 13.975 3.53701V12.749C13.975 13.327 13.765 13.669 13.029 13.72L4.33502 14.245C3.78302 14.272 3.52002 14.193 3.23102 13.825L1.47102 11.542C1.15602 11.122 1.02502 10.807 1.02502 10.439V2.25001C1.02502 1.77801 1.23502 1.38401 1.83902 1.33201V1.33201Z" fill="white"/>
</svg>
