<svg width="" height="387" viewBox="0 0 532 387" fill="none" xmlns="http://www.w3.org/2000/svg">
<path d="M184.5 0L0 369H369L184.5 0Z" fill="#F7AB0A"/>
<path d="M347.5 0L163 369H532L347.5 0Z" fill="#F7AB0A"/>
<path d="M265.25 184L173 368.5H357.5L265.25 184Z" fill="white"/>
<path d="M84.488 336.04C84.488 327.272 79.304 322.344 70.088 322.344H50.824V369H56.776V349.224H71.432C79.112 349.224 84.488 343.784 84.488 336.04ZM78.28 335.784C78.28 340.904 74.888 343.976 69.192 343.976H56.776V327.592H69.192C74.888 327.592 78.28 330.664 78.28 335.784ZM183.99 368.872V364.84C183.414 364.968 183.158 364.968 182.838 364.968C180.982 364.968 179.958 364.008 179.958 362.344V343.656C179.958 337.704 175.606 334.504 167.35 334.504C159.222 334.504 154.23 337.64 153.91 345.384H159.286C159.734 341.288 162.166 339.432 167.158 339.432C171.958 339.432 174.646 341.224 174.646 344.424V345.832C174.646 348.072 173.302 349.032 169.078 349.544C161.526 350.504 160.374 350.76 158.326 351.592C154.422 353.192 152.438 356.2 152.438 360.296C152.438 366.376 156.662 369.96 163.446 369.96C167.734 369.96 171.894 368.168 174.838 365.032C175.414 367.592 177.718 369.448 180.342 369.448C181.43 369.448 182.262 369.32 183.99 368.872ZM174.646 357.416C174.646 362.216 169.782 365.288 164.598 365.288C160.438 365.288 158.006 363.816 158.006 360.168C158.006 356.648 160.374 355.112 166.07 354.28C171.702 353.512 172.854 353.256 174.646 352.424V357.416ZM280.481 369V343.656C280.481 338.088 276.321 334.504 269.857 334.504C264.865 334.504 261.665 336.424 258.72 341.096V335.464H253.793V369H259.105V350.504C259.105 343.656 262.817 339.176 268.257 339.176C272.481 339.176 275.169 341.736 275.169 345.768V369H280.481ZM380.555 369V322.344H375.243V339.688C373.003 336.296 369.419 334.504 364.939 334.504C356.235 334.504 350.539 341.224 350.539 351.912C350.539 363.24 356.107 369.96 365.131 369.96C369.739 369.96 372.939 368.232 375.819 364.072V369H380.555ZM375.243 352.36C375.243 360.104 371.531 364.968 365.899 364.968C360.011 364.968 356.107 360.04 356.107 352.232C356.107 344.424 360.011 339.496 365.835 339.496C371.595 339.496 375.243 344.616 375.243 352.36ZM481.078 352.488C481.078 340.904 475.51 334.504 465.846 334.504C456.438 334.504 450.742 340.968 450.742 352.232C450.742 363.496 456.374 369.96 465.91 369.96C475.318 369.96 481.078 363.496 481.078 352.488ZM475.51 352.424C475.51 360.296 471.798 365.032 465.91 365.032C459.958 365.032 456.31 360.36 456.31 352.232C456.31 344.168 459.958 339.432 465.91 339.432C471.926 339.432 475.51 344.104 475.51 352.424Z" fill="black"/>
</svg>
