<svg width="100" height="100" viewBox="0 0 100 100" fill="none" xmlns="http://www.w3.org/2000/svg">
<path d="M74.0406 63.9656L24.0844 93.6281L88.7718 89.2531L93.75 24.0156L74.0406 63.9656Z" fill="url(#paint0_linear_56_2)"/>
<path d="M88.875 89.1937L83.3156 50.8219L68.1719 70.8219L88.875 89.1937Z" fill="url(#paint1_linear_56_2)"/>
<path d="M88.95 89.1937L48.2188 85.9969L24.3 93.5437L88.95 89.1937Z" fill="url(#paint2_linear_56_2)"/>
<path d="M24.3563 93.5531L34.5312 60.2188L12.1406 65L24.3563 93.5531Z" fill="url(#paint3_linear_56_2)"/>
<path d="M68.1656 70.9375L58.7906 34.2656L32.0094 59.375L68.1656 70.9375Z" fill="url(#paint4_linear_56_2)"/>
<path d="M91.625 34.7719L66.3125 14.0875L59.2594 36.9L91.625 34.7719Z" fill="url(#paint5_linear_56_2)"/>
<path d="M79.7813 6.71251L64.8844 14.9438L55.4875 6.60001L79.7813 6.71251Z" fill="url(#paint6_linear_56_2)"/>
<path d="M6.25 76.1875L12.5 64.8063L7.44375 51.25L6.25 76.1875Z" fill="url(#paint7_linear_56_2)"/>
<path d="M7.1062 50.8219L12.1875 65.2281L34.2562 60.2781L59.45 36.875L66.5624 14.2781L55.3656 6.37189L36.3312 13.4969C30.3312 19.0625 18.6937 30.1094 18.275 30.3125C17.8562 30.5156 10.5906 44.2625 7.1062 50.8188V50.8219Z" fill="white"/>
<path d="M24.9406 24.9406C37.9375 12.0563 54.6875 4.44063 61.1218 10.9375C67.5562 17.4344 60.7343 33.1906 47.7375 46.075C34.7406 58.9594 18.1906 66.9813 11.7656 60.4938C5.34058 54.0063 11.9437 37.8125 24.9406 24.9406V24.9406Z" fill="url(#paint8_linear_56_2)"/>
<path d="M24.3562 93.5406L34.4531 60.1031L67.9812 70.875C55.8593 82.2437 42.375 91.8531 24.3562 93.5437V93.5406Z" fill="url(#paint9_linear_56_2)"/>
<path d="M59.4937 36.7938L68.1 70.8875C78.225 60.2406 87.3156 48.7938 91.7656 34.6375L59.4906 36.7969L59.4937 36.7938Z" fill="url(#paint10_linear_56_2)"/>
<path d="M91.6782 34.8094C95.1157 24.4125 95.9188 9.49689 79.675 6.73126L66.3469 14.0906L91.6782 34.8063V34.8094Z" fill="url(#paint11_linear_56_2)"/>
<path d="M6.25 76.0375C6.72812 93.1938 19.1063 93.45 24.375 93.6L12.1875 65.1625L6.25 76.0375V76.0375Z" fill="#9E1209"/>
<path d="M59.5406 36.8469C67.3219 41.6313 83.0063 51.2219 83.3219 51.4125C86.9804 46.3533 89.7483 40.7065 91.5063 34.7156L59.5406 36.85V36.8469Z" fill="url(#paint12_radial_56_2)"/>
<path d="M34.4407 60.1L47.9375 86.1375C55.2891 82.0428 62.0097 76.9063 67.8907 70.8875L34.4532 60.1H34.4407Z" fill="url(#paint13_radial_56_2)"/>
<path d="M12.1469 65.1906L10.2344 87.9625C13.8437 92.8906 18.8062 93.3188 24.0125 92.9344C20.2469 83.5594 12.7187 64.8094 12.1375 65.1906H12.1469Z" fill="url(#paint14_linear_56_2)"/>
<path d="M66.2688 14.15L93.0813 17.9C91.65 11.8375 87.2563 7.92501 79.7657 6.70001L66.2688 14.1375V14.15Z" fill="url(#paint15_linear_56_2)"/>
<defs>
<linearGradient id="paint0_linear_56_2" x1="82.8975" y1="101.53" x2="64.5279" y2="68.5664" gradientUnits="userSpaceOnUse">
<stop stop-color="#FB7655"/>
<stop offset="0.41" stop-color="#E42B1E"/>
<stop offset="0.99" stop-color="#990000"/>
<stop offset="1" stop-color="#990000"/>
</linearGradient>
<linearGradient id="paint1_linear_56_2" x1="92.2973" y1="74.1615" x2="66.3912" y2="69.0587" gradientUnits="userSpaceOnUse">
<stop stop-color="#871101"/>
<stop offset="0.99" stop-color="#911209"/>
<stop offset="1" stop-color="#911209"/>
</linearGradient>
<linearGradient id="paint2_linear_56_2" x1="73.0228" y1="102.172" x2="72.6839" y2="85.6744" gradientUnits="userSpaceOnUse">
<stop stop-color="#871101"/>
<stop offset="0.99" stop-color="#911209"/>
<stop offset="1" stop-color="#911209"/>
</linearGradient>
<linearGradient id="paint3_linear_56_2" x1="23.3958" y1="62.6506" x2="31.0668" y2="85.2646" gradientUnits="userSpaceOnUse">
<stop stop-color="white"/>
<stop offset="0.23" stop-color="#E57252"/>
<stop offset="0.46" stop-color="#DE3B20"/>
<stop offset="0.99" stop-color="#A60003"/>
<stop offset="1" stop-color="#A60003"/>
</linearGradient>
<linearGradient id="paint4_linear_56_2" x1="48.9204" y1="40.0548" x2="50.2747" y2="64.4222" gradientUnits="userSpaceOnUse">
<stop stop-color="white"/>
<stop offset="0.23" stop-color="#E4714E"/>
<stop offset="0.56" stop-color="#BE1A0D"/>
<stop offset="0.99" stop-color="#A80D00"/>
<stop offset="1" stop-color="#A80D00"/>
</linearGradient>
<linearGradient id="paint5_linear_56_2" x1="71.4778" y1="17.2366" x2="73.4005" y2="34.8794" gradientUnits="userSpaceOnUse">
<stop stop-color="white"/>
<stop offset="0.18" stop-color="#E46342"/>
<stop offset="0.4" stop-color="#C82410"/>
<stop offset="0.99" stop-color="#A80D00"/>
<stop offset="1" stop-color="#A80D00"/>
</linearGradient>
<linearGradient id="paint6_linear_56_2" x1="58.4844" y1="11.7884" x2="61.3437" y2="-0.437811" gradientUnits="userSpaceOnUse">
<stop stop-color="white"/>
<stop offset="0.54" stop-color="#C81F11"/>
<stop offset="0.99" stop-color="#BF0905"/>
<stop offset="1" stop-color="#BF0905"/>
</linearGradient>
<linearGradient id="paint7_linear_56_2" x1="8.19588" y1="56.6994" x2="15.8018" y2="61.5714" gradientUnits="userSpaceOnUse">
<stop stop-color="white"/>
<stop offset="0.31" stop-color="#DE4024"/>
<stop offset="0.99" stop-color="#BF190B"/>
<stop offset="1" stop-color="#BF190B"/>
</linearGradient>
<linearGradient id="paint8_linear_56_2" x1="-1.51842" y1="74.6836" x2="66.0948" y2="4.50284" gradientUnits="userSpaceOnUse">
<stop stop-color="#BD0012"/>
<stop offset="0.07" stop-color="white"/>
<stop offset="0.17" stop-color="white"/>
<stop offset="0.27" stop-color="#C82F1C"/>
<stop offset="0.33" stop-color="#820C01"/>
<stop offset="0.46" stop-color="#A31601"/>
<stop offset="0.72" stop-color="#B31301"/>
<stop offset="0.99" stop-color="#E82609"/>
<stop offset="1" stop-color="#E82609"/>
</linearGradient>
<linearGradient id="paint9_linear_56_2" x1="49.8738" y1="82.3859" x2="30.5348" y2="74.1381" gradientUnits="userSpaceOnUse">
<stop stop-color="#8C0C01"/>
<stop offset="0.54" stop-color="#990C00"/>
<stop offset="0.99" stop-color="#A80D0E"/>
<stop offset="1" stop-color="#A80D0E"/>
</linearGradient>
<linearGradient id="paint10_linear_56_2" x1="85.2586" y1="57.0475" x2="65.465" y2="43.1214" gradientUnits="userSpaceOnUse">
<stop stop-color="#7E110B"/>
<stop offset="0.99" stop-color="#9E0C00"/>
<stop offset="1" stop-color="#9E0C00"/>
</linearGradient>
<linearGradient id="paint11_linear_56_2" x1="91.7547" y1="27.2683" x2="82.2943" y2="17.8003" gradientUnits="userSpaceOnUse">
<stop stop-color="#79130D"/>
<stop offset="0.99" stop-color="#9E120B"/>
<stop offset="1" stop-color="#9E120B"/>
</linearGradient>
<radialGradient id="paint12_radial_56_2" cx="0" cy="0" r="1" gradientUnits="userSpaceOnUse" gradientTransform="translate(69.9761 41.1552) scale(22.1143 11.5556)">
<stop stop-color="#A80D00"/>
<stop offset="0.99" stop-color="#7E0E08"/>
<stop offset="1" stop-color="#7E0E08"/>
</radialGradient>
<radialGradient id="paint13_radial_56_2" cx="0" cy="0" r="1" gradientUnits="userSpaceOnUse" gradientTransform="translate(39.3457 70.5906) scale(29.5347 22.9914)">
<stop stop-color="#A30C00"/>
<stop offset="0.99" stop-color="#800E08"/>
<stop offset="1" stop-color="#800E08"/>
</radialGradient>
<linearGradient id="paint14_linear_56_2" x1="17.7437" y1="93.4225" x2="1.23293" y2="79.6232" gradientUnits="userSpaceOnUse">
<stop stop-color="#8B2114"/>
<stop offset="0.43" stop-color="#9E100A"/>
<stop offset="0.99" stop-color="#B3100C"/>
<stop offset="1" stop-color="#B3100C"/>
</linearGradient>
<linearGradient id="paint15_linear_56_2" x1="74.8847" y1="10.8056" x2="79.5535" y2="22.6495" gradientUnits="userSpaceOnUse">
<stop stop-color="#B31000"/>
<stop offset="0.44" stop-color="#910F08"/>
<stop offset="0.99" stop-color="#791C12"/>
<stop offset="1" stop-color="#791C12"/>
</linearGradient>
</defs>
</svg>
