<svg width="100" height="100" viewBox="0 0 100 100" fill="none" xmlns="http://www.w3.org/2000/svg">
<path d="M82.5 69.5833C82.5 69.5833 90 68.75 90 59.5833C90 50.4167 81.25 49.1667 81.25 49.1667H65.4167V79.1667H73.3334V72.0833L80.4167 79.1667H91.6667L82.5 69.5833ZM79.1667 63.75H72.9167V57.0833H79.1667C79.1667 57.0833 80.8334 57.9167 80.8334 60.4167C81.25 62.9167 79.1667 63.75 79.1667 63.75M88.75 34.1667V35C55 25.4167 41.6667 55 44.1667 77.9167H17.9167C20.8334 55.4167 49.1667 10.8333 88.75 34.1667M85.4167 28.75C82.5 27.5 79.5834 26.25 76.6667 25.4167L77.0834 20L85.8334 23.3333L85.4167 28.75ZM77.0834 36.25C80 36.25 82.9167 36.6667 85.8334 37.5L85.4167 42.5L77.9167 41.6667L77.0834 36.25ZM57.9167 24.1667L56.25 19.1667L65 18.3333L66.6667 23.75C65.8334 23.75 58.75 24.1667 57.9167 24.1667M63.3334 39.5833C65 38.75 67.9167 37.5 71.6667 36.6667L73.3334 41.6667L65.8334 44.5833L63.3334 39.5833ZM49.1667 27.0833C46.6667 28.3333 44.1667 29.5833 41.6667 31.25L38.3334 25.8333L45.8334 21.6667L49.1667 27.0833ZM59.5834 42.0833L62.9167 47.0833L58.3334 52.5L53.75 48.3333C55 45.8333 57.0834 43.75 59.5834 42.0833M48.3334 62.5C48.75 59.1667 49.5834 56.25 50.8334 52.9167L55.8334 57.0833L54.5834 65L48.3334 62.5M32.9167 38.75C30.8334 40.8333 28.75 43.3333 27.0834 45.4167L21.6667 40.8333L27.9167 34.1667L32.9167 38.75ZM20 57.0833C18.3334 60.4167 17.0834 63.75 15.8334 66.6667L8.33337 63.75L12.0834 54.1667L20 57.0833M47.9167 67.9167L55.4167 70.4167L56.6667 78.75L48.3334 76.6667C48.3334 75.8333 47.9167 72.9167 47.9167 67.9167V67.9167Z" fill="#F24E1E"/>
</svg>
