<svg width="88" height="66" viewBox="0 0 88 66" fill="none" xmlns="http://www.w3.org/2000/svg">
<path d="M75.5937 37.9125C72.8459 37.9161 70.1348 38.5444 67.6656 39.75C66.8925 38.467 66.2954 37.0859 65.8906 35.6437C65.658 34.5133 65.6042 33.3534 65.7312 32.2062C65.9983 30.944 66.3448 29.6998 66.7687 28.4812C66.7531 28.3219 66.5781 27.5687 64.8187 27.5437C63.0593 27.5187 61.5437 27.8781 61.3812 28.3437C61.0756 29.1942 60.8302 30.0651 60.6468 30.95C59.1907 34.5422 57.3984 37.9888 55.2937 41.2437C54.1145 39.3106 53.6295 37.0333 53.9187 34.7875C54.1858 33.5252 54.5323 32.2811 54.9562 31.0625C54.9406 30.9031 54.7656 30.15 53.0062 30.125C51.2468 30.1 49.7312 30.4594 49.5687 30.925C49.4062 31.3906 49.2 32.4875 48.8343 33.5312C48.4687 34.575 44.2 44.1125 43.0812 46.5719C42.5062 47.8219 42.0093 48.8406 41.6593 49.5281C41.6427 49.5728 41.6218 49.6157 41.5968 49.6562L41.1187 50.5687V50.5844C40.8781 51.0156 40.6218 51.4156 40.4937 51.4156C40.2702 50.5228 40.281 49.5874 40.525 48.7C41.15 45.3906 42.6812 40.2469 42.6656 40.0687C42.6656 39.9719 42.9531 39.0781 41.6749 38.6156C41.3785 38.4745 41.0456 38.4289 40.7222 38.4848C40.3987 38.5408 40.1005 38.6957 39.8687 38.9281C39.7562 38.9281 39.6781 39.2 39.6781 39.2C39.6781 39.2 41.0687 33.4156 37.025 33.4156C35.4502 33.7324 33.9548 34.3608 32.6265 35.264C31.2983 36.1673 30.164 37.327 29.2906 38.675C28.2031 39.2656 25.8875 40.5281 23.4093 41.8875C22.4718 42.4156 21.4906 42.9437 20.5812 43.45C20.5187 43.3875 20.4531 43.3062 20.3906 43.2437C15.4687 38 6.42183 34.3 6.81245 27.2844C6.9562 24.7281 7.83433 18.0156 24.1843 9.86248C37.6406 3.23123 48.35 5.06873 50.2031 9.14373C52.8562 14.9625 44.4656 25.7656 30.5625 27.3312C29.0244 27.6433 27.4358 27.6056 25.9142 27.221C24.3926 26.8365 22.9769 26.1148 21.7718 25.1094C21.0375 24.3094 20.925 24.2625 20.6531 24.4219C20.2062 24.6625 20.4937 25.3812 20.6531 25.7969C21.1835 26.7567 21.9009 27.6005 22.7629 28.2784C23.6249 28.9563 24.614 29.4546 25.6718 29.7437C31.1413 30.9257 36.8438 30.3606 41.975 28.1281C50.4125 24.8687 56.9749 15.8062 55.0499 8.21561C53.1156 0.512485 40.3312 -2.02814 28.2312 2.27811C20.6523 4.82834 13.6494 8.8453 7.62183 14.1C0.956203 20.3344 -0.0969229 25.75 0.334327 28.0219C1.89683 36.0781 12.9937 41.3187 17.4343 45.2094C17.2337 45.3234 17.0316 45.4349 16.8281 45.5437C14.6062 46.6469 6.13745 51.075 4.01558 55.7562C1.6187 61.0687 4.39995 64.8656 6.23745 65.3781C9.00622 66.0409 11.9128 65.8226 14.5515 64.7536C17.1903 63.6847 19.4293 61.8185 20.9562 59.4156C22.2564 57.4225 23.0556 55.1447 23.2858 52.7762C23.5159 50.4077 23.1702 48.0186 22.2781 45.8125C22.263 45.7768 22.2419 45.744 22.2156 45.7156L23.9562 44.6937C25.0139 44.0685 26.0849 43.4663 27.1687 42.8875C26.5181 44.7639 26.1362 46.7229 26.0343 48.7062C25.8134 51.7461 26.7438 54.758 28.6406 57.1437C28.9292 57.3922 29.2643 57.5809 29.6264 57.6989C29.9884 57.8169 30.3704 57.8619 30.75 57.8312C32.625 57.8312 33.4843 56.2687 34.425 54.4125C35.575 52.1437 36.6124 49.5062 36.6124 49.5062C36.6124 49.5062 35.3187 56.6344 38.8343 56.6344C40.1125 56.6344 41.4062 54.9719 41.9843 54.1344V54.15L42.0812 53.9906L42.2875 53.6562V53.625C42.7999 52.7312 43.95 50.7 45.6593 47.3281C47.8656 42.9812 49.9906 37.5469 49.9906 37.5469C50.1955 38.7412 50.4784 39.9208 50.8375 41.0781C51.3522 42.481 51.9608 43.8477 52.6593 45.1687C52.1468 45.8875 51.8281 46.2875 51.8281 46.2875L51.8437 46.3031C51.4281 46.8469 50.9812 47.4375 50.4843 48.0125C49.006 49.6378 47.6344 51.357 46.3781 53.1594C46.1914 53.4621 46.1272 53.8246 46.1987 54.173C46.2701 54.5215 46.4717 54.8295 46.7625 55.0344C47.4203 55.3767 48.1701 55.5004 48.9031 55.3875C50.0076 55.3251 51.0937 55.0769 52.1156 54.6531C53.1031 54.3056 54.0348 53.8161 54.8812 53.2C55.7538 52.5955 56.4562 51.7766 56.9208 50.8221C57.3855 49.8677 57.5967 48.8097 57.5343 47.75C57.4361 46.4151 57.0951 45.1093 56.5281 43.8969C56.6875 43.6719 56.8406 43.45 56.9906 43.225C58.7672 40.5731 60.3686 37.8078 61.7843 34.9469C61.9893 36.1412 62.2722 37.3208 62.6312 38.4781C63.0557 39.6905 63.5783 40.8662 64.1937 41.9937C62.1498 43.5663 60.5398 45.6333 59.5156 48C58.5093 50.9094 59.2906 52.2187 60.7656 52.5219C61.5727 52.5775 62.3797 52.4122 63.0999 52.0437C64.1589 51.6957 65.1566 51.1832 66.0562 50.525C67.0048 49.9651 67.7993 49.1782 68.3683 48.2351C68.9372 47.2919 69.2628 46.2221 69.3156 45.1219C69.2446 44.0236 68.9966 42.9441 68.5812 41.925C71.2784 40.8713 74.2028 40.5353 77.0687 40.95C84.675 41.8437 86.1781 46.5906 85.8906 48.5906C85.7557 49.2996 85.4707 49.9716 85.0546 50.5612C84.6384 51.1509 84.1009 51.6447 83.4781 52.0094C82.95 52.3437 82.775 52.4562 82.8218 52.6969C82.8843 53.05 83.1343 53.0312 83.5874 52.9687C84.7338 52.6124 85.7453 51.917 86.4884 50.9742C87.2315 50.0313 87.6714 48.8854 87.75 47.6875C87.9906 43 83.5156 37.8594 75.6031 37.9062L75.5937 37.9125ZM16.9062 57.6875C14.3812 60.4375 10.8656 61.475 9.34683 60.5969C7.71558 59.6594 8.3562 55.5969 11.4562 52.6844C13.2951 51.029 15.2827 49.5467 17.3937 48.2562C17.7625 48.0312 18.3062 47.7125 18.9562 47.3187L19.1312 47.2219L19.5156 46.9812C20.0694 48.8368 20.1196 50.8064 19.6611 52.6878C19.2025 54.5692 18.2517 56.2948 16.9062 57.6875ZM35.2843 45.1875C34.4062 47.3281 32.5687 52.8125 31.45 52.5062C30.4906 52.25 29.8875 48.0937 31.2593 43.9875C31.952 42.0108 32.9609 40.1596 34.2468 38.5062C35.6218 36.9719 37.1406 36.4594 37.5062 37.0844C37.1726 39.8809 36.4238 42.612 35.2843 45.1875ZM50.45 52.4437C50.0812 52.6344 49.7312 52.7562 49.5718 52.6687C49.4593 52.6062 49.7312 52.3562 49.7312 52.3562C49.7312 52.3562 51.6343 50.3094 52.3843 49.3844C52.8156 48.8406 53.3218 48.2031 53.8718 47.4812V47.6875C53.8718 50.1312 51.5062 51.7781 50.4531 52.45L50.45 52.4437ZM62.15 49.775C61.8781 49.5844 61.925 48.9437 62.8375 46.9469C63.4719 45.6644 64.3583 44.5229 65.4437 43.5906C65.6101 44.0636 65.6967 44.5611 65.7 45.0625C65.7123 46.1298 65.371 47.1712 64.7294 48.0242C64.0878 48.8772 63.1819 49.4939 62.1531 49.7781L62.15 49.775Z" fill="#CD6799"/>
</svg>
