<svg width="256" height="319" viewBox="0 0 256 319" fill="none" xmlns="http://www.w3.org/2000/svg">
<g clip-path="url(#clip0_76_3)">
<path d="M9.87204 293.324L0.0120424 30.574C-0.314958 21.895 6.33804 14.54 15.005 14L238.494 0.0319929C247.316 -0.520007 254.914 6.18499 255.466 15.007C255.486 15.339 255.497 15.672 255.497 16.005V302.319C255.497 311.158 248.332 318.323 239.493 318.323C239.253 318.323 239.013 318.318 238.775 318.307L25.148 308.712C16.828 308.339 10.185 301.647 9.87204 293.324V293.324Z" fill="#FF4785"/>
<mask id="mask0_76_3" style="mask-type:luminance" maskUnits="userSpaceOnUse" x="0" y="0" width="256" height="319">
<path d="M9.87204 293.324L0.0120424 30.574C-0.314958 21.895 6.33804 14.54 15.005 14L238.494 0.0319929C247.316 -0.520007 254.914 6.18499 255.466 15.007C255.486 15.339 255.497 15.672 255.497 16.005V302.319C255.497 311.158 248.332 318.323 239.493 318.323C239.253 318.323 239.013 318.318 238.775 318.307L25.148 308.712C16.828 308.339 10.185 301.647 9.87204 293.324V293.324Z" fill="white"/>
</mask>
<g mask="url(#mask0_76_3)">
<path d="M188.665 39.127L190.192 2.411L220.884 0L222.206 37.863C222.222 38.3183 222.108 38.7688 221.877 39.1612C221.646 39.5537 221.307 39.8718 220.9 40.0779C220.494 40.2839 220.037 40.3695 219.584 40.3243C219.131 40.2791 218.7 40.1052 218.342 39.823L206.507 30.498L192.494 41.128C192.133 41.4021 191.702 41.5679 191.25 41.606C190.799 41.644 190.346 41.5528 189.944 41.3429C189.543 41.1331 189.209 40.8133 188.983 40.4209C188.756 40.0285 188.646 39.5797 188.665 39.127V39.127ZM149.414 119.98C149.414 126.207 191.356 123.223 196.986 118.849C196.986 76.447 174.234 54.165 132.571 54.165C90.909 54.165 67.566 76.793 67.566 110.735C67.566 169.852 147.346 170.984 147.346 203.229C147.346 212.281 142.913 217.655 133.162 217.655C120.457 217.655 115.433 211.165 116.024 189.103C116.024 184.317 67.566 182.825 66.088 189.103C62.326 242.569 95.6361 257.99 133.753 257.99C170.688 257.99 199.645 238.303 199.645 202.664C199.645 139.304 118.684 141.001 118.684 109.604C118.684 96.876 128.139 95.179 133.754 95.179C139.663 95.179 150.3 96.221 149.414 119.98V119.98Z" fill="white"/>
</g>
</g>
<defs>
<clipPath id="clip0_76_3">
<rect width="256" height="319" fill="white"/>
</clipPath>
</defs>
</svg>
