<svg width="576" height="512" viewBox="0 0 576 512" fill="none" xmlns="http://www.w3.org/2000/svg">
<path d="M492.4 220.8C483.5 220.8 473.7 227.5 473.7 243.5H510.4C510.4 227.5 501.1 220.8 492.4 220.8ZM375 223.4C366.8 223.4 361.7 226.3 358 230.4L358.2 283.2C361.7 286.9 366.7 289.9 375 289.9C388.1 289.9 396.9 275.6 396.9 256.5C396.9 237.9 387.9 223.3 375 223.4ZM528 32H48C21.5 32 0 53.5 0 80V432C0 458.5 21.5 480 48 480H528C554.5 480 576 458.5 576 432V80C576 53.5 554.5 32 528 32ZM122.2 281.1C122.2 306.7 101.9 321.2 72.3 321.4C60.1 321.4 46.7 319 33.5 313.3V279.4C45.5 285.8 60.6 290.7 72.4 290.7C80.3 290.7 86 288.6 86 282C86 265 32 271.4 32 232.1C32 206.9 51.2 191.9 80 191.9C91.8 191.9 103.5 193.7 115.3 198.4V231.8C104.5 226 90.8 222.7 80 222.7C72.5 222.7 67.9 224.9 67.9 230.4C67.9 246.4 122.2 238.8 122.2 281.1ZM191 224.5H164V275C164 295.9 186.5 289.4 191 287.6V316.5C186.3 319.1 177.7 321.2 166.1 321.2C145 321.2 129.2 305.7 129.2 284.7L129.4 170.8L164.1 163.4V194.2H191V224.5ZM265 226.9C260.5 225.4 246.3 223.3 237.9 234.3V318.7H202.4V194.2H233.1L235.3 204.7C243.6 189.4 260.2 192.5 264.9 194.2H265V226.9ZM309.1 318.7H273.4V194.2H309.1V318.7ZM309.1 175.8L273.4 183.4V154.5L309.1 146.9V175.8ZM383.2 321.3C370.8 321.3 363.2 316 358.1 312.3L358 352.5L322.5 360V194.2H353.8L355.6 203C360.5 198.5 369.5 191.9 383.4 191.9C408.3 191.9 431.8 214.4 431.8 255.7C431.8 300.8 408.6 321.2 383.2 321.3ZM543.6 269.8H474.1C475.7 286.4 487.9 291.3 501.7 291.3C515.8 291.3 526.9 288.3 536.6 283.4V312C526.9 317.3 514.2 321.2 497.2 321.2C462.6 321.2 438.4 299.5 438.4 256.7C438.4 220.5 458.9 191.8 492.7 191.8C526.4 191.8 544 220.5 544 256.9C544 260.4 543.7 267.8 543.6 269.8Z" fill="black"/>
</svg>
