<svg width="240" height="240" viewBox="0 0 240 240" fill="none" xmlns="http://www.w3.org/2000/svg">
<path d="M188 120C188 133.449 184.012 146.596 176.54 157.779C169.068 168.961 158.448 177.677 146.022 182.824C133.597 187.971 119.925 189.317 106.734 186.693C93.5431 184.07 81.4267 177.593 71.9167 168.083C62.4068 158.573 55.9304 146.457 53.3066 133.266C50.6828 120.075 52.0294 106.403 57.1762 93.9775C62.323 81.5521 71.0387 70.932 82.2212 63.4601C93.4038 55.9881 106.551 52 120 52C138.027 52.0265 155.307 59.1992 168.054 71.946C180.801 84.6927 187.974 101.973 188 120ZM120 36C122.122 36 124.157 35.1571 125.657 33.6569C127.157 32.1566 128 30.1217 128 28V8C128 5.87827 127.157 3.84344 125.657 2.34315C124.157 0.842854 122.122 0 120 0C117.878 0 115.843 0.842854 114.343 2.34315C112.843 3.84344 112 5.87827 112 8V28C112 30.1217 112.843 32.1566 114.343 33.6569C115.843 35.1571 117.878 36 120 36ZM49.3 60.6C50.8123 62.0722 52.8395 62.8959 54.95 62.8959C57.0605 62.8959 59.0877 62.0722 60.6 60.6C62.0961 59.1003 62.9363 57.0684 62.9363 54.95C62.9363 52.8316 62.0961 50.7997 60.6 49.3L46.5 35.1C45.7827 34.226 44.8904 33.5119 43.8805 33.0036C42.8705 32.4952 41.7654 32.204 40.6361 32.1485C39.5068 32.093 38.3784 32.2746 37.3236 32.6815C36.2687 33.0884 35.3107 33.7117 34.5112 34.5112C33.7117 35.3107 33.0884 36.2687 32.6815 37.3236C32.2746 38.3784 32.093 39.5068 32.1485 40.6361C32.204 41.7654 32.4952 42.8705 33.0036 43.8805C33.5119 44.8904 34.226 45.7827 35.1 46.5L49.3 60.6ZM36 120C36 117.878 35.1571 115.843 33.6569 114.343C32.1566 112.843 30.1217 112 28 112H8C5.87827 112 3.84344 112.843 2.34315 114.343C0.842854 115.843 0 117.878 0 120C0 122.122 0.842854 124.157 2.34315 125.657C3.84344 127.157 5.87827 128 8 128H28C30.1217 128 32.1566 127.157 33.6569 125.657C35.1571 124.157 36 122.122 36 120ZM49.3 179.4L35.1 193.5C33.5977 195.017 32.755 197.065 32.755 199.2C32.755 201.335 33.5977 203.383 35.1 204.9C36.6466 206.351 38.6796 207.171 40.8 207.2C42.9243 207.191 44.9643 206.368 46.5 204.9L60.6 190.7C61.9789 189.178 62.7197 187.184 62.6692 185.131C62.6186 183.079 61.7806 181.124 60.3285 179.672C58.8764 178.219 56.9215 177.381 54.8685 177.331C52.8156 177.28 50.8218 178.021 49.3 179.4V179.4ZM120 204C117.878 204 115.843 204.843 114.343 206.343C112.843 207.843 112 209.878 112 212V232C112 234.122 112.843 236.157 114.343 237.657C115.843 239.157 117.878 240 120 240C122.122 240 124.157 239.157 125.657 237.657C127.157 236.157 128 234.122 128 232V212C128 209.878 127.157 207.843 125.657 206.343C124.157 204.843 122.122 204 120 204ZM190.7 179.4C189.178 178.021 187.184 177.28 185.131 177.331C183.079 177.381 181.124 178.219 179.672 179.672C178.219 181.124 177.381 183.079 177.331 185.131C177.28 187.184 178.021 189.178 179.4 190.7L193.5 204.9C195.036 206.368 197.076 207.191 199.2 207.2C201.32 207.171 203.353 206.351 204.9 204.9C206.402 203.383 207.245 201.335 207.245 199.2C207.245 197.065 206.402 195.017 204.9 193.5L190.7 179.4ZM232 112H212C209.878 112 207.843 112.843 206.343 114.343C204.843 115.843 204 117.878 204 120C204 122.122 204.843 124.157 206.343 125.657C207.843 127.157 209.878 128 212 128H232C234.122 128 236.157 127.157 237.657 125.657C239.157 124.157 240 122.122 240 120C240 117.878 239.157 115.843 237.657 114.343C236.157 112.843 234.122 112 232 112ZM185.1 62.9C186.14 62.9092 187.171 62.7104 188.132 62.3155C189.094 61.9205 189.967 61.3372 190.7 60.6L204.9 46.5C206.176 44.9456 206.828 42.9723 206.729 40.9639C206.63 38.9555 205.788 37.0556 204.366 35.6337C202.944 34.2118 201.045 33.3696 199.036 33.271C197.028 33.1724 195.054 33.8243 193.5 35.1L179.4 49.3C177.904 50.7997 177.064 52.8316 177.064 54.95C177.064 57.0684 177.904 59.1003 179.4 60.6C180.145 61.3494 181.034 61.9398 182.014 62.3351C182.994 62.7305 184.044 62.9227 185.1 62.9Z" fill="white"/>
</svg>
