<svg width="100" height="100" viewBox="0 0 100 100" fill="white" xmlns="http://www.w3.org/2000/svg">
<path d="M7.08705 50C7.08705 43.936 8.33333 38.1138 10.8259 32.5335L31.3058 88.6161C24.0141 85.0818 18.1548 79.8549 13.7277 72.9353C9.3006 66.0156 7.08705 58.3705 7.08705 50ZM78.9621 47.8237C78.9621 48.5305 78.9155 49.2467 78.8225 49.9721C78.7295 50.6975 78.5435 51.6183 78.2645 52.7344C77.9855 53.8504 77.7716 54.6689 77.6228 55.1897C77.474 55.7106 77.1484 56.808 76.6462 58.4821C76.144 60.1562 75.8185 61.2351 75.6696 61.7187L71.4286 76.0045L55.9152 29.9107C57.6265 29.7991 59.2634 29.6503 60.8259 29.4643C61.5327 29.3899 62.0164 29.0458 62.2768 28.4319C62.5372 27.8181 62.4907 27.2414 62.1373 26.702C61.7839 26.1626 61.2537 25.9115 60.5469 25.9487L49.1071 26.5067C46.317 26.4695 42.5595 26.2835 37.8348 25.9487C37.3884 25.9115 37.0071 26.0045 36.6908 26.2277C36.3746 26.4509 36.1607 26.7299 36.0491 27.0647C35.9375 27.3996 35.9096 27.7437 35.9654 28.0971C36.0212 28.4505 36.1886 28.7574 36.4676 29.0179C36.7467 29.2783 37.1094 29.4271 37.5558 29.4643L42.0201 29.9107L48.7165 48.2143L39.3415 76.3393L23.7165 29.9107C25.4278 29.7991 27.0647 29.6503 28.6272 29.4643C29.3341 29.3899 29.8177 29.0458 30.0781 28.4319C30.3385 27.8181 30.292 27.2414 29.9386 26.702C29.5852 26.1626 29.0551 25.9115 28.3482 25.9487L16.9085 26.5067C16.6481 26.5067 16.2202 26.4974 15.625 26.4788C15.0298 26.4602 14.5461 26.4509 14.1741 26.4509C18.0804 20.4985 23.1864 15.7831 29.4922 12.3047C35.798 8.82626 42.6339 7.08705 50 7.08705C55.4687 7.08705 60.6864 8.07292 65.6529 10.0446C70.6194 12.0164 75.0558 14.7879 78.9621 18.3594H78.404C76.3579 18.3594 74.6466 19.1127 73.2701 20.6194C71.8936 22.1261 71.2054 23.9025 71.2054 25.9487C71.2054 26.3951 71.2426 26.8415 71.317 27.2879C71.3914 27.7344 71.4658 28.1343 71.5402 28.4877C71.6146 28.8411 71.7634 29.269 71.9866 29.7712C72.2098 30.2734 72.3772 30.6641 72.4888 30.9431C72.6004 31.2221 72.8237 31.6406 73.1585 32.1987C73.4933 32.7567 73.7258 33.1473 73.856 33.3705C73.9862 33.5937 74.256 34.0402 74.6652 34.7098C75.0744 35.3795 75.3348 35.8073 75.4464 35.9933C77.7902 39.974 78.9621 43.9174 78.9621 47.8237ZM50.7254 53.7388L63.9509 89.8437C63.9881 90.067 64.0811 90.2716 64.2299 90.4576C59.5424 92.0945 54.7991 92.9129 50 92.9129C45.8333 92.9129 41.7969 92.3177 37.8906 91.1272L50.7254 53.7388ZM87.6116 29.4085C91.1458 35.8817 92.9129 42.7455 92.9129 50C92.9129 57.7753 90.9784 64.9461 87.1094 71.5123C83.2403 78.0785 78.0506 83.2589 71.5402 87.0536L84.654 49.2187C86.849 42.9315 87.9464 37.7976 87.9464 33.817C87.9464 32.2545 87.8348 30.785 87.6116 29.4085ZM50 0C56.7708 0 63.244 1.32068 69.4196 3.96205C75.5952 6.60342 80.9152 10.1562 85.3795 14.6205C89.8437 19.0848 93.3966 24.4048 96.0379 30.5804C98.6793 36.756 100 43.2292 100 50C100 56.7708 98.6793 63.244 96.0379 69.4196C93.3966 75.5952 89.8437 80.9152 85.3795 85.3795C80.9152 89.8437 75.5952 93.3966 69.4196 96.0379C63.244 98.6793 56.7708 100 50 100C43.2292 100 36.756 98.6793 30.5804 96.0379C24.4048 93.3966 19.0848 89.8437 14.6205 85.3795C10.1562 80.9152 6.60342 75.5952 3.96205 69.4196C1.32068 63.244 0 56.7708 0 50C0 43.2292 1.32068 36.756 3.96205 30.5804C6.60342 24.4048 10.1562 19.0848 14.6205 14.6205C19.0848 10.1562 24.4048 6.60342 30.5804 3.96205C36.756 1.32068 43.2292 0 50 0ZM50 97.7121C56.436 97.7121 62.6023 96.4472 68.4989 93.9174C74.3955 91.3876 79.4736 87.9929 83.7333 83.7333C87.9929 79.4736 91.3876 74.3955 93.9174 68.4989C96.4472 62.6023 97.7121 56.436 97.7121 50C97.7121 43.564 96.4472 37.3977 93.9174 31.5011C91.3876 25.6045 87.9929 20.5264 83.7333 16.2667C79.4736 12.0071 74.3955 8.61235 68.4989 6.08259C62.6023 3.55283 56.436 2.28795 50 2.28795C43.564 2.28795 37.3977 3.55283 31.5011 6.08259C25.6045 8.61235 20.5264 12.0071 16.2667 16.2667C12.0071 20.5264 8.61235 25.6045 6.08259 31.5011C3.55283 37.3977 2.28795 43.564 2.28795 50C2.28795 56.436 3.55283 62.6023 6.08259 68.4989C8.61235 74.3955 12.0071 79.4736 16.2667 83.7333C20.5264 87.9929 25.6045 91.3876 31.5011 93.9174C37.3977 96.4472 43.564 97.7121 50 97.7121Z" fill="#0073AA"/>
</svg>
